<svg xmlns="http://www.w3.org/2000/svg" width="800" height="560" viewBox="0 0 800 560" fill="none">
  <defs>
    <linearGradient id="bg" x1="0" y1="0" x2="800" y2="560" gradientUnits="userSpaceOnUse">
      <stop stop-color="#EEF2FF"/>
      <stop offset="1" stop-color="#F8FAFC"/>
    </linearGradient>
    <linearGradient id="accent" x1="0" y1="0" x2="1" y2="1">
      <stop stop-color="#6366F1"/>
      <stop offset="1" stop-color="#2563EB"/>
    </linearGradient>
    <filter id="blur" x="-20%" y="-20%" width="140%" height="140%">
      <feGaussianBlur stdDeviation="40"/>
    </filter>
  </defs>
  <rect width="800" height="560" rx="24" fill="url(#bg)"/>
  <circle cx="680" cy="80" r="90" fill="#6366F1" opacity="0.12" filter="url(#blur)"/>
  <circle cx="120" cy="480" r="70" fill="#0EA5E9" opacity="0.1" filter="url(#blur)"/>
  <rect x="48" y="48" width="704" height="464" rx="20" fill="white" fill-opacity="0.72" stroke="#E2E8F0"/>
  <rect x="72" y="72" width="120" height="32" rx="10" fill="#0F172A"/>
  <rect x="204" y="80" width="180" height="16" rx="8" fill="#CBD5E1"/>
  <rect x="600" y="76" width="96" height="24" rx="12" fill="#EEF2FF"/>
  <rect x="72" y="128" width="656" height="88" rx="16" fill="#F8FAFC" stroke="#E2E8F0"/>
  <rect x="92" y="148" width="140" height="12" rx="6" fill="#64748B"/>
  <rect x="92" y="172" width="520" height="10" rx="5" fill="#E2E8F0"/>
  <rect x="92" y="190" width="380" height="10" rx="5" fill="url(#accent)" opacity="0.85"/>
  <rect x="72" y="236" width="200" height="120" rx="16" fill="#FFFFFF" stroke="#E2E8F0"/>
  <rect x="292" y="236" width="200" height="120" rx="16" fill="#FFFFFF" stroke="#E2E8F0"/>
  <rect x="512" y="236" width="216" height="120" rx="16" fill="#FFFFFF" stroke="#E2E8F0"/>
  <rect x="92" y="256" width="80" height="10" rx="5" fill="#94A3B8"/>
  <rect x="92" y="280" width="48" height="28" rx="8" fill="#0F172A"/>
  <rect x="312" y="256" width="80" height="10" rx="5" fill="#94A3B8"/>
  <rect x="312" y="280" width="48" height="28" rx="8" fill="#6366F1"/>
  <rect x="532" y="256" width="80" height="10" rx="5" fill="#94A3B8"/>
  <rect x="532" y="280" width="48" height="28" rx="8" fill="#0EA5E9"/>
  <rect x="72" y="376" width="656" height="112" rx="16" fill="#FFFFFF" stroke="#E2E8F0"/>
  <rect x="92" y="396" width="120" height="10" rx="5" fill="#64748B"/>
  <rect x="92" y="420" width="420" height="8" rx="4" fill="#E2E8F0"/>
  <rect x="92" y="440" width="360" height="8" rx="4" fill="#E2E8F0"/>
  <rect x="92" y="460" width="280" height="8" rx="4" fill="#E2E8F0"/>
</svg>
